<?xml version="1.0" encoding="UTF-8"?>
<svg xmlns="http://www.w3.org/2000/svg" viewBox="0 0 800 80">
  <g fill="#333333">
    <path d="M119 60V20h-15V10h40v10h-15v40h-10z"/>
    <path d="M153 60V10h35v10h-25v10h22v10h-22v10h25v10h-35z"/>
    <path d="M198 60V10h10v20h20V10h10v50h-10V40h-20v20h-10z"/>
    <path d="M249 60V10h10v50h-10z"/>
    <path d="M272 60V20h-10V10h30v10h-10v40h-10z"/>
    <path d="M307 60V10h10v50h-10z"/>
    <path d="M335 60V10h10v40h25v10h-35z"/>
    <path d="M395 60V42.5L375 10h12.5l10 20 10-20H420l-20 32.5V60h-10z"/>
    <path d="M450 60V20h-15V10h40v10h-15v40h-10z"/>
    <path d="M500 60V10h15c5 0 10 1 12.5 3s5 5 5 10c0 2.5-1 5-2.5 7.5s-5 3.5-8.5 3.5c3.5 0 6 1 8 3s3 5 3 8c0 5-1.5 9-4.5 11.5S520.5 60 515 60H500zM510 30h5c2.5 0 3.75-0.5 4.5-1s1.5-2 1.5-3.5-0.5-2.5-1.5-3-2.5-1-4.5-1h-5V30zM510 50h7.5c2.5 0 3.5-0.5 4.5-1.5s1.5-2 1.5-3.5-0.5-2.5-1.5-3-2.5-1-4.5-1H510V50z"/>
    <path d="M550 60V10h10v50h-10z"/>
    <path d="M575 60V10h10v40h25v10h-35z"/>
    <path d="M620 60V10h10v20h20V10h10v50h-10V40h-20v20h-10z"/>
    <path d="M673 60V10h35v10h-25v10h22v10h-22v10h25v10h-35z"/>
    <path d="M720 60c-3.5 0-6-1-8-3s-3-5-3-8V21c0-3 1-5.5 3-7.5s4.5-2.5 8-2.5h22.5c3.5 0 6 1 8 2.5s3 4.5 3 7.5v28c0 3-1 5.5-3 8s-4.5 3-8 3H720zM722.5 50h17.5c1.5 0 2.5-0.5 3-1 0.5-0.5 1-1.5 1-2.5V24c0-1-0.5-2-1-2.5s-1.5-0.5-3-0.5h-17.5c-1.5 0-2.5 0-3 0.5s-1 1.5-1 2.5v22.5c0 1 0.5 2 1 2.5s1.5 1 3 1z"/>
    <path d="M765 60V10h35v10h-25v10h22v10h-22v10h25v10h-35z"/>
    <path d="M835 60V20h-15V10h40v10h-15v40h-10z"/>
    <path d="M870 60V10h10v19.5c0 0.5 0 1 0.5 1.5s0.5 0.5 1.5 0.5h12c1 0 1.5 0 2-0.5s0.5-1 0.5-1.5V10h10v19.5c0 5-1 8.5-3.5 11s-6 3.5-11.5 3.5h-7c-5.5 0-9-1-11.5-3.5s-3-6-3-11V10z"/>
    <path d="M915 60V10h10v20h20V10h10v50h-10V40h-20v20h-10z"/>
  </g>
</svg>