<?xml version="1.0" encoding="UTF-8"?>
<svg xmlns="http://www.w3.org/2000/svg" viewBox="0 0 800 200">
  <g fill="#A5D46A">
    <path d="M36.8 154.9c-5.9 0-10.7-1-14.3-3.1-3.6-2.1-6.3-5-8-8.7-1.7-3.8-2.6-8.2-2.6-13.4V58.4c0-5.2 0.9-9.6 2.6-13.3 1.7-3.7 4.4-6.6 8-8.7 3.6-2.1 8.4-3.1 14.3-3.1h48.5v15.2H41.1c-3.2 0-5.5 0.7-6.9 2.2-1.4 1.5-2.1 3.8-2.1 7v65.5c0 3.2 0.7 5.5 2.1 7 1.4 1.5 3.7 2.2 6.9 2.2h44.2v15.2H36.8z"/>
    <path d="M103.3 154.9V33.3h73.3v15.2h-51v37.9h45.5v15.2h-45.5v37.9h51v15.3h-73.3z"/>
    <path d="M266.7 154.9V48.5h-33.4V33.3h89v15.2h-33.4v106.4h-22.2z"/>
    <path d="M335.2 154.9V33.3h73.3v15.2h-51v37.9h45.5v15.2h-45.5v37.9h51v15.3h-73.3z"/>
    <path d="M425.8 154.9V33.3h22.2v106.3h48.9v15.3h-71.1z"/>
    <path d="M513.5 154.9V33.3h22.2v106.3h48.9v15.3h-71.1z"/>
    <path d="M600.4 155.9c-5.9 0-10.7-1-14.3-3.1-3.6-2.1-6.3-5-8-8.7-1.7-3.8-2.6-8.2-2.6-13.4V59.3c0-5.2 0.9-9.6 2.6-13.3 1.7-3.7 4.4-6.6 8-8.7 3.6-2.1 8.4-3.1 14.3-3.1h49.7c5.9 0 10.7 1 14.3 3.1 3.6 2.1 6.3 5 8 8.7 1.7 3.8 2.6 8.2 2.6 13.3v71.3c0 5.2-0.9 9.6-2.6 13.4-1.7 3.7-4.4 6.6-8 8.7-3.6 2.1-8.4 3.1-14.3 3.1h-49.7zm4.4-15.3h41c3.2 0 5.5-0.7 6.9-2.2 1.4-1.5 2.1-3.8 2.1-7V66.2c0-3.2-0.7-5.5-2.1-7-1.4-1.5-3.7-2.2-6.9-2.2h-41c-3.2 0-5.5 0.7-6.9 2.2-1.4 1.5-2.1 3.8-2.1 7v65.1c0 3.2 0.7 5.5 2.1 7 1.4 1.5 3.7 2.2 6.9 2.2z"/>
    <path d="M711.6 154.9V33.3h22.9l40.2 81.5h0.8V33.3h19.4v121.5h-22.9l-40.2-81.5h-0.8v81.5h-19.4z"/>
    <path d="M820.8 154.9c-4 0-7.2-1.1-9.4-3.4-2.3-2.3-3.4-5.4-3.4-9.4 0-3.8 1.1-6.9 3.4-9.2 2.3-2.3 5.4-3.4 9.4-3.4 3.8 0 6.9 1.1 9.2 3.4 2.3 2.3 3.4 5.4 3.4 9.2 0 4-1.1 7.2-3.4 9.4-2.3 2.3-5.4 3.4-9.2 3.4z"/>
  </g>
</svg>