<?xml version="1.0" encoding="UTF-8"?>
<svg width="200" height="200" viewBox="0 0 200 200" xmlns="http://www.w3.org/2000/svg">
  <!-- Circular background gradient -->
  <defs>
    <radialGradient id="logoGradient" cx="50%" cy="50%" r="50%" fx="30%" fy="30%">
      <stop offset="0%" style="stop-color:#b3d686;stop-opacity:1" />
      <stop offset="80%" style="stop-color:#97c667;stop-opacity:1" />
      <stop offset="100%" style="stop-color:#8eba5e;stop-opacity:1" />
    </radialGradient>
    
    <!-- Highlight gradient -->
    <radialGradient id="highlightGradient" cx="30%" cy="30%" r="70%" fx="30%" fy="20%">
      <stop offset="0%" style="stop-color:#ffffff;stop-opacity:0.5" />
      <stop offset="70%" style="stop-color:#ffffff;stop-opacity:0" />
    </radialGradient>
  </defs>
  
  <!-- Main circle -->
  <circle cx="100" cy="100" r="95" fill="url(#logoGradient)" stroke="#78a24b" stroke-width="2" />
  
  <!-- Highlight overlay for 3D effect -->
  <circle cx="100" cy="100" r="85" fill="url(#highlightGradient)" />
  
  <!-- Letter e -->
  <g transform="translate(48, 40)">
    <!-- Main e shape -->
    <path d="M22,60 C8,60 0,48 0,30 C0,12 8,0 24,0 C40,0 54,12 54,30 L54,33 L16,33 C16,40 18,46 24,46
             C30,46 34,42 36,36 L52,36 C48,52 36,60 22,60 Z M24,13 C18,13 16,18 16,26 L38,26 C38,18 32,13 24,13 Z" 
          fill="white" stroke="#4a7023" stroke-width="1" />
  </g>
</svg>