<svg xmlns="http://www.w3.org/2000/svg" width="400" height="300" viewBox="0 0 400 300">
  <defs>
    <linearGradient id="acupunctureGradient" x1="0%" y1="0%" x2="100%" y2="100%">
      <stop offset="0%" style="stop-color:#6A5ACD;stop-opacity:1" />
      <stop offset="100%" style="stop-color:#4169E1;stop-opacity:1" />
    </linearGradient>
  </defs>
  <rect width="400" height="300" fill="#F8F9FA" rx="10" ry="10" />
  
  <!-- Abstract acupuncture illustration -->
  <g transform="translate(200, 150)">
    <!-- Background circle -->
    <circle cx="0" cy="0" r="100" fill="#F0F4FF" />
    
    <!-- Abstract shape representing treatment area -->
    <ellipse cx="0" cy="0" rx="70" ry="40" fill="#FFFFFF" stroke="#6A5ACD" stroke-width="2" />
    
    <!-- Acupuncture needles -->
    <line x1="-60" y1="-30" x2="-50" y2="0" stroke="#6A5ACD" stroke-width="1.5" />
    <line x1="-40" y1="-35" x2="-30" y2="0" stroke="#6A5ACD" stroke-width="1.5" />
    <line x1="-20" y1="-38" x2="-10" y2="0" stroke="#6A5ACD" stroke-width="1.5" />
    <line x1="0" y1="-40" x2="0" y2="0" stroke="#6A5ACD" stroke-width="1.5" />
    <line x1="20" y1="-38" x2="10" y2="0" stroke="#6A5ACD" stroke-width="1.5" />
    <line x1="40" y1="-35" x2="30" y2="0" stroke="#6A5ACD" stroke-width="1.5" />
    <line x1="60" y1="-30" x2="50" y2="0" stroke="#6A5ACD" stroke-width="1.5" />
    
    <!-- Needle tops -->
    <circle cx="-60" cy="-30" r="3" fill="#FFFFFF" stroke="#6A5ACD" stroke-width="1" />
    <circle cx="-40" cy="-35" r="3" fill="#FFFFFF" stroke="#6A5ACD" stroke-width="1" />
    <circle cx="-20" cy="-38" r="3" fill="#FFFFFF" stroke="#6A5ACD" stroke-width="1" />
    <circle cx="0" cy="-40" r="3" fill="#FFFFFF" stroke="#6A5ACD" stroke-width="1" />
    <circle cx="20" cy="-38" r="3" fill="#FFFFFF" stroke="#6A5ACD" stroke-width="1" />
    <circle cx="40" cy="-35" r="3" fill="#FFFFFF" stroke="#6A5ACD" stroke-width="1" />
    <circle cx="60" cy="-30" r="3" fill="#FFFFFF" stroke="#6A5ACD" stroke-width="1" />
    
    <!-- Energy flow lines -->
    <path d="M-60 20 C -30 40, 30 40, 60 20" fill="none" stroke="url(#acupunctureGradient)" stroke-width="2" />
    <path d="M-50 25 C -25 45, 25 45, 50 25" fill="none" stroke="url(#acupunctureGradient)" stroke-width="1.5" />
    <path d="M-40 30 C -20 50, 20 50, 40 30" fill="none" stroke="url(#acupunctureGradient)" stroke-width="1" />
    
    <!-- Energy points -->
    <circle cx="-50" cy="0" r="3" fill="#6A5ACD" />
    <circle cx="-30" cy="0" r="3" fill="#6A5ACD" />
    <circle cx="-10" cy="0" r="3" fill="#6A5ACD" />
    <circle cx="0" cy="0" r="3" fill="#6A5ACD" />
    <circle cx="10" cy="0" r="3" fill="#6A5ACD" />
    <circle cx="30" cy="0" r="3" fill="#6A5ACD" />
    <circle cx="50" cy="0" r="3" fill="#6A5ACD" />
  </g>
  
  <!-- Abstract decorative elements -->
  <circle cx="40" cy="40" r="15" fill="#6A5ACD" opacity="0.2" />
  <circle cx="360" cy="260" r="20" fill="#4169E1" opacity="0.2" />
</svg>