<?xml version="1.0" encoding="UTF-8"?>
<svg width="400" height="300" viewBox="0 0 400 300" fill="none" xmlns="http://www.w3.org/2000/svg">
  <rect width="400" height="300" fill="#F8FAFC"/>
  
  <!-- Athletic Person Running -->
  <circle cx="150" cy="80" r="18" fill="#BFDBFE" stroke="#0284C7" stroke-width="2"/>
  <path d="M143 77C143 77 150 72 157 77" stroke="#0284C7" stroke-width="2"/>
  <circle cx="143" cy="80" r="2" fill="#0284C7"/>
  <circle cx="157" cy="80" r="2" fill="#0284C7"/>
  
  <!-- Running Body -->
  <path d="M150 98L140 140" stroke="#0284C7" stroke-width="2"/>
  <path d="M150 98L160 120" stroke="#0284C7" stroke-width="2"/>
  <path d="M140 140L125 180" stroke="#0284C7" stroke-width="2"/>
  <path d="M140 140L155 170" stroke="#0284C7" stroke-width="2"/>
  <path d="M160 120L180 110" stroke="#0284C7" stroke-width="2"/>
  <path d="M160 120L175 140" stroke="#0284C7" stroke-width="2"/>
  
  <!-- Motion Lines -->
  <path d="M190 100C190 100 210 105 220 95" stroke="#0284C7" stroke-width="2" stroke-dasharray="4 2"/>
  <path d="M190 120C190 120 205 125 215 115" stroke="#0284C7" stroke-width="2" stroke-dasharray="4 2"/>
  
  <!-- Stopwatch -->
  <circle cx="240" cy="80" r="25" fill="white" stroke="#0284C7" stroke-width="2"/>
  <circle cx="240" cy="80" r="20" fill="#E0F2FE" stroke="#0284C7" stroke-width="2"/>
  <path d="M240 65V80" stroke="#0284C7" stroke-width="2"/>
  <path d="M240 80L255 75" stroke="#0284C7" stroke-width="2"/>
  <circle cx="240" cy="80" r="3" fill="#0284C7"/>
  <path d="M240 55V60" stroke="#0284C7" stroke-width="2"/>
  <path d="M235 55H245" stroke="#0284C7" stroke-width="2"/>
  
  <!-- Measuring scale/metrics -->
  <path d="M300 120L300 220" stroke="#0284C7" stroke-width="2" stroke-dasharray="5 5"/>
  <path d="M290 120L310 120" stroke="#0284C7" stroke-width="2"/>
  <path d="M290 220L310 220" stroke="#0284C7" stroke-width="2"/>
  <rect x="310" y="160" width="45" height="25" rx="5" fill="white" stroke="#0284C7" stroke-width="2"/>
  <text x="318" y="177" font-family="Arial" font-size="10" fill="#0284C7">8.2s</text>
  
  <!-- Track Lines -->
  <path d="M50 190C50 190 120 190 170 190C220 190 260 190 350 190" stroke="#0284C7" stroke-width="2" stroke-dasharray="10 5"/>
  <path d="M50 210C50 210 120 210 170 210C220 210 260 210 350 210" stroke="#0284C7" stroke-width="2" stroke-dasharray="10 5"/>
  <path d="M50 230C50 230 120 230 170 230C220 230 260 230 350 230" stroke="#0284C7" stroke-width="2" stroke-dasharray="10 5"/>
  
  <!-- Therapeutic Elements -->
  <rect x="230" y="130" width="60" height="40" rx="5" fill="#BAE6FD" stroke="#0284C7" stroke-width="2"/>
  <circle cx="250" cy="150" r="10" fill="#DBEAFE" stroke="#0284C7" stroke-width="2"/>
  <path d="M250 140V160" stroke="#0284C7" stroke-width="2"/>
  <path d="M240 150H260" stroke="#0284C7" stroke-width="2"/>
  <circle cx="270" cy="150" r="10" fill="#DBEAFE" stroke="#0284C7" stroke-width="2"/>
  <path d="M270 140V160" stroke="#0284C7" stroke-width="2"/>
  <path d="M260 150H280" stroke="#0284C7" stroke-width="2"/>
</svg>