<svg xmlns="http://www.w3.org/2000/svg" width="400" height="300" viewBox="0 0 400 300">
  <defs>
    <linearGradient id="athleticGradient" x1="0%" y1="0%" x2="100%" y2="100%">
      <stop offset="0%" style="stop-color:#6A5ACD;stop-opacity:1" />
      <stop offset="100%" style="stop-color:#4169E1;stop-opacity:1" />
    </linearGradient>
  </defs>
  <rect width="400" height="300" fill="#F8F9FA" rx="10" ry="10" />
  
  <!-- Abstract athletic illustration -->
  <g transform="translate(200, 150)">
    <!-- Background circle -->
    <circle cx="0" cy="0" r="100" fill="#F0F4FF" />
    
    <!-- Abstract exercise equipment -->
    <rect x="-90" y="30" width="180" height="15" rx="7" ry="7" fill="#FFFFFF" stroke="#6A5ACD" stroke-width="2" />
    
    <!-- Abstract weights -->
    <circle cx="-75" cy="30" r="25" fill="#FFFFFF" stroke="#6A5ACD" stroke-width="3" />
    <circle cx="75" cy="30" r="25" fill="#FFFFFF" stroke="#6A5ACD" stroke-width="3" />
    
    <!-- Movement lines -->
    <path d="M0 -70 Q -60 -40, 0 -10 Q 60 20, 0 50" fill="none" stroke="url(#athleticGradient)" stroke-width="5" stroke-linecap="round" />
    
    <!-- Abstract energy waves -->
    <path d="M-70 -40 Q -35 -50, 0 -40 Q 35 -30, 70 -40" fill="none" stroke="#4169E1" stroke-width="2" stroke-dasharray="5,3" opacity="0.7" />
    <path d="M-70 -20 Q -35 -30, 0 -20 Q 35 -10, 70 -20" fill="none" stroke="#4169E1" stroke-width="2" stroke-dasharray="5,3" opacity="0.5" />
    <path d="M-70 0 Q -35 -10, 0 0 Q 35 10, 70 0" fill="none" stroke="#4169E1" stroke-width="2" stroke-dasharray="5,3" opacity="0.3" />
    
    <!-- Abstract stopwatch/timer -->
    <circle cx="0" cy="-50" r="20" fill="#FFFFFF" stroke="#6A5ACD" stroke-width="2" />
    <line x1="0" y1="-50" x2="0" y2="-35" stroke="#6A5ACD" stroke-width="2" />
    <line x1="0" y1="-50" x2="10" y2="-40" stroke="#6A5ACD" stroke-width="2" />
  </g>
  
  <!-- Abstract decorative elements -->
  <circle cx="40" cy="40" r="15" fill="#6A5ACD" opacity="0.2" />
  <circle cx="360" cy="260" r="20" fill="#4169E1" opacity="0.2" />
</svg>