<svg xmlns="http://www.w3.org/2000/svg" width="400" height="300" viewBox="0 0 400 300">
  <defs>
    <linearGradient id="spineGradient" x1="0%" y1="0%" x2="100%" y2="100%">
      <stop offset="0%" style="stop-color:#6A5ACD;stop-opacity:1" />
      <stop offset="100%" style="stop-color:#4169E1;stop-opacity:1" />
    </linearGradient>
  </defs>
  <rect width="400" height="300" fill="#F8F9FA" rx="10" ry="10" />
  
  <!-- Abstract spine illustration -->
  <g transform="translate(200, 150) scale(0.9)">
    <!-- Background circle -->
    <circle cx="0" cy="0" r="100" fill="#F0F4FF" />
    
    <!-- Abstract table -->
    <rect x="-80" y="60" width="160" height="20" rx="5" ry="5" fill="#FFFFFF" stroke="#6A5ACD" stroke-width="2" />
    <rect x="-75" y="80" width="10" height="40" rx="2" ry="2" fill="#6A5ACD" />
    <rect x="65" y="80" width="10" height="40" rx="2" ry="2" fill="#6A5ACD" />
    
    <!-- Spine elements -->
    <path d="M0 -80 Q -10 -70, 0 -60 Q 10 -50, 0 -40 Q -10 -30, 0 -20 Q 10 -10, 0 0 Q -10 10, 0 20 Q 10 30, 0 40 Q -10 50, 0 60" 
          fill="none" stroke="url(#spineGradient)" stroke-width="5" stroke-linecap="round" />
    
    <!-- Vertebrae -->
    <ellipse cx="0" cy="-70" rx="15" ry="7" fill="#FFFFFF" stroke="#6A5ACD" stroke-width="2" />
    <ellipse cx="0" cy="-50" rx="15" ry="7" fill="#FFFFFF" stroke="#6A5ACD" stroke-width="2" />
    <ellipse cx="0" cy="-30" rx="15" ry="7" fill="#FFFFFF" stroke="#6A5ACD" stroke-width="2" />
    <ellipse cx="0" cy="-10" rx="15" ry="7" fill="#FFFFFF" stroke="#6A5ACD" stroke-width="2" />
    <ellipse cx="0" cy="10" rx="15" ry="7" fill="#FFFFFF" stroke="#6A5ACD" stroke-width="2" />
    <ellipse cx="0" cy="30" rx="15" ry="7" fill="#FFFFFF" stroke="#6A5ACD" stroke-width="2" />
    <ellipse cx="0" cy="50" rx="15" ry="7" fill="#FFFFFF" stroke="#6A5ACD" stroke-width="2" />
    
    <!-- Healing aura -->
    <circle cx="0" cy="0" r="120" fill="none" stroke="#6A5ACD" stroke-width="1" stroke-dasharray="3,3" opacity="0.5" />
    <circle cx="0" cy="0" r="130" fill="none" stroke="#4169E1" stroke-width="1" stroke-dasharray="3,3" opacity="0.3" />
  </g>
  
  <!-- Abstract decorative elements -->
  <circle cx="40" cy="40" r="15" fill="#6A5ACD" opacity="0.2" />
  <circle cx="360" cy="260" r="20" fill="#4169E1" opacity="0.2" />
</svg>