<?xml version="1.0" encoding="UTF-8"?>
<svg width="400" height="300" viewBox="0 0 400 300" fill="none" xmlns="http://www.w3.org/2000/svg">
  <rect width="400" height="300" fill="#F8FAFC"/>
  <path d="M200 50C180 50 165 85 165 125C165 165 180 200 200 200C220 200 235 165 235 125C235 85 220 50 200 50Z" fill="#E0F2FE" stroke="#0284C7" stroke-width="2"/>
  <path d="M200 70C190 70 180 100 180 125C180 150 190 180 200 180C210 180 220 150 220 125C220 100 210 70 200 70Z" fill="#BFDBFE" stroke="#0284C7" stroke-width="2"/>
  <path d="M200 70V180" stroke="#0284C7" stroke-width="2" stroke-dasharray="5 5"/>
  <path d="M180 90H220" stroke="#0284C7" stroke-width="2"/>
  <path d="M175 110H225" stroke="#0284C7" stroke-width="2"/>
  <path d="M175 125H225" stroke="#0284C7" stroke-width="2"/>
  <path d="M175 140H225" stroke="#0284C7" stroke-width="2"/>
  <path d="M180 160H220" stroke="#0284C7" stroke-width="2"/>
  <path d="M175 200L165 250" stroke="#0284C7" stroke-width="2"/>
  <path d="M225 200L235 250" stroke="#0284C7" stroke-width="2"/>
  <circle cx="165" cy="250" r="10" fill="#BAE6FD" stroke="#0284C7" stroke-width="2"/>
  <circle cx="235" cy="250" r="10" fill="#BAE6FD" stroke="#0284C7" stroke-width="2"/>
  <path d="M200 50L190 30C190 30 180 25 200 25C220 25 210 30 210 30L200 50Z" fill="#BAE6FD" stroke="#0284C7" stroke-width="2"/>
  <circle cx="200" cy="20" r="15" fill="#BAE6FD" stroke="#0284C7" stroke-width="2"/>
  <path d="M190 15C190 15 195 10 200 10C205 10 210 15 210 15" stroke="#0284C7" stroke-width="2"/>
  <ellipse cx="193" cy="18" rx="2" ry="3" fill="#0284C7"/>
  <ellipse cx="207" cy="18" rx="2" ry="3" fill="#0284C7"/>
  <path d="M140 125L165 125" stroke="#0284C7" stroke-width="2" stroke-dasharray="5 5"/>
  <path d="M235 125L260 125" stroke="#0284C7" stroke-width="2" stroke-dasharray="5 5"/>
  <circle cx="140" cy="125" r="5" fill="#0284C7"/>
  <circle cx="260" cy="125" r="5" fill="#0284C7"/>
  <rect x="120" y="115" width="40" height="20" rx="5" fill="white" stroke="#0284C7" stroke-width="2"/>
  <text x="133" y="128" font-family="Arial" font-size="9" fill="#0284C7">C1</text>
  <rect x="240" y="115" width="40" height="20" rx="5" fill="white" stroke="#0284C7" stroke-width="2"/>
  <text x="252" y="128" font-family="Arial" font-size="9" fill="#0284C7">C7</text>
</svg>