<svg xmlns="http://www.w3.org/2000/svg" width="400" height="300" viewBox="0 0 400 300">
  <defs>
    <linearGradient id="massageGradient" x1="0%" y1="0%" x2="100%" y2="100%">
      <stop offset="0%" style="stop-color:#6A5ACD;stop-opacity:1" />
      <stop offset="100%" style="stop-color:#4169E1;stop-opacity:1" />
    </linearGradient>
  </defs>
  <rect width="400" height="300" fill="#F8F9FA" rx="10" ry="10" />
  
  <!-- Abstract massage illustration -->
  <g transform="translate(200, 150)">
    <!-- Background circle -->
    <circle cx="0" cy="0" r="100" fill="#F0F4FF" />
    
    <!-- Abstract massage table -->
    <rect x="-80" y="20" width="160" height="30" rx="10" ry="10" fill="#FFFFFF" stroke="#6A5ACD" stroke-width="2" />
    <rect x="-70" y="50" width="10" height="30" rx="2" ry="2" fill="#6A5ACD" />
    <rect x="60" y="50" width="10" height="30" rx="2" ry="2" fill="#6A5ACD" />
    
    <!-- Abstract hands -->
    <circle cx="-40" cy="-20" r="20" fill="#FFFFFF" stroke="url(#massageGradient)" stroke-width="3" />
    <circle cx="40" cy="-20" r="20" fill="#FFFFFF" stroke="url(#massageGradient)" stroke-width="3" />
    
    <!-- Energy waves -->
    <path d="M-70 -50 Q -35 -70, 0 -50 Q 35 -30, 70 -50" fill="none" stroke="#4169E1" stroke-width="2" stroke-dasharray="5,3" opacity="0.7" />
    <path d="M-70 -30 Q -35 -50, 0 -30 Q 35 -10, 70 -30" fill="none" stroke="#4169E1" stroke-width="2" stroke-dasharray="5,3" opacity="0.5" />
    <path d="M-70 -10 Q -35 -30, 0 -10 Q 35 10, 70 -10" fill="none" stroke="#4169E1" stroke-width="2" stroke-dasharray="5,3" opacity="0.3" />
    
    <!-- Abstract oil bottle and stones -->
    <rect x="-80" y="-70" width="15" height="25" rx="3" ry="3" fill="#FFFFFF" stroke="#6A5ACD" stroke-width="1.5" />
    <circle cx="-50" cy="-60" r="10" fill="#6A5ACD" opacity="0.7" />
    <circle cx="-30" cy="-60" r="8" fill="#6A5ACD" opacity="0.7" />
    <circle cx="-40" cy="-45" r="7" fill="#6A5ACD" opacity="0.7" />
  </g>
  
  <!-- Abstract decorative elements -->
  <circle cx="40" cy="40" r="15" fill="#6A5ACD" opacity="0.2" />
  <circle cx="360" cy="260" r="20" fill="#4169E1" opacity="0.2" />
</svg>