<?xml version="1.0" encoding="UTF-8"?>
<svg width="400" height="300" viewBox="0 0 400 300" fill="none" xmlns="http://www.w3.org/2000/svg">
  <rect width="400" height="300" fill="#F8FAFC"/>
  
  <!-- Massage Table -->
  <rect x="100" y="150" width="200" height="30" rx="5" fill="#BFDBFE" stroke="#0284C7" stroke-width="2"/>
  <rect x="110" y="180" width="10" height="40" fill="#94A3B8" stroke="#0284C7" stroke-width="2"/>
  <rect x="280" y="180" width="10" height="40" fill="#94A3B8" stroke="#0284C7" stroke-width="2"/>
  
  <!-- Face Cradle -->
  <path d="M100 165C100 165 80 165 80 180C80 195 100 195 100 195" stroke="#0284C7" stroke-width="2" fill="none"/>
  <ellipse cx="90" cy="180" rx="10" ry="15" fill="#DBEAFE" stroke="#0284C7" stroke-width="2"/>
  
  <!-- Patient Lying Down -->
  <rect x="100" y="135" width="200" height="15" rx="7.5" fill="#E0F2FE" stroke="#0284C7" stroke-width="2"/>
  <circle cx="130" cy="127" r="15" fill="#DBEAFE" stroke="#0284C7" stroke-width="2"/>
  <path d="M125 123C125 123 130 118 135 123" stroke="#0284C7" stroke-width="2"/>
  <path d="M130 127V123" stroke="#0284C7" stroke-width="2"/>
  
  <!-- Massage Therapist -->
  <circle cx="200" cy="80" r="18" fill="#BAE6FD" stroke="#0284C7" stroke-width="2"/>
  <path d="M193 77C193 77 200 72 207 77" stroke="#0284C7" stroke-width="2"/>
  <circle cx="193" cy="80" r="2" fill="#0284C7"/>
  <circle cx="207" cy="80" r="2" fill="#0284C7"/>
  <path d="M200 98V125" stroke="#0284C7" stroke-width="2"/>
  <path d="M200 125L180 150" stroke="#0284C7" stroke-width="2"/>
  <path d="M200 125L220 150" stroke="#0284C7" stroke-width="2"/>
  <path d="M180 110H220" stroke="#0284C7" stroke-width="2"/>
  
  <!-- Massage Hand Movements -->
  <path d="M160 140C160 140 165 130 170 140" stroke="#0284C7" stroke-width="2"/>
  <path d="M230 140C230 140 235 130 240 140" stroke="#0284C7" stroke-width="2"/>
  <path d="M170 130C170 130 175 120 180 130" stroke="#0284C7" stroke-width="2"/>
  <path d="M220 130C220 130 225 120 230 130" stroke="#0284C7" stroke-width="2"/>
  
  <!-- Relaxation Symbols -->
  <path d="M260 100C260 100 270 90 280 100" stroke="#0284C7" stroke-width="2" stroke-opacity="0.5"/>
  <path d="M265 90C265 90 275 80 285 90" stroke="#0284C7" stroke-width="2" stroke-opacity="0.5"/>
  <path d="M270 80C270 80 280 70 290 80" stroke="#0284C7" stroke-width="2" stroke-opacity="0.5"/>
  
  <!-- Massage Oils -->
  <rect x="320" y="150" width="20" height="30" rx="2" fill="#DBEAFE" stroke="#0284C7" stroke-width="2"/>
  <path d="M325 150V145" stroke="#0284C7" stroke-width="2"/>
  <path d="M335 150V145" stroke="#0284C7" stroke-width="2"/>
  <rect x="320" y="145" width="20" height="5" rx="2" fill="#0284C7"/>
  
  <rect x="350" y="160" width="15" height="20" rx="2" fill="#BAE6FD" stroke="#0284C7" stroke-width="2"/>
  <path d="M353 160V155" stroke="#0284C7" stroke-width="2"/>
  <path d="M362 160V155" stroke="#0284C7" stroke-width="2"/>
  <rect x="350" y="155" width="15" height="5" rx="2" fill="#0284C7"/>
  
  <!-- Hot Stones -->
  <ellipse cx="60" cy="200" rx="10" ry="5" fill="#94A3B8" stroke="#0284C7" stroke-width="2"/>
  <ellipse cx="40" cy="210" rx="8" ry="4" fill="#94A3B8" stroke="#0284C7" stroke-width="2"/>
  <ellipse cx="55" cy="220" rx="7" ry="3.5" fill="#94A3B8" stroke="#0284C7" stroke-width="2"/>
  
  <!-- Steam/Heat Symbols -->
  <path d="M50 180C50 180 55 175 60 180" stroke="#0284C7" stroke-width="2" stroke-dasharray="2 1"/>
  <path d="M45 170C45 170 50 165 55 170" stroke="#0284C7" stroke-width="2" stroke-dasharray="2 1"/>
  <path d="M60 170C60 170 65 165 70 170" stroke="#0284C7" stroke-width="2" stroke-dasharray="2 1"/>
</svg>