<svg xmlns="http://www.w3.org/2000/svg" width="400" height="300" viewBox="0 0 400 300">
  <defs>
    <linearGradient id="podiatryGradient" x1="0%" y1="0%" x2="100%" y2="100%">
      <stop offset="0%" style="stop-color:#6A5ACD;stop-opacity:1" />
      <stop offset="100%" style="stop-color:#4169E1;stop-opacity:1" />
    </linearGradient>
  </defs>
  <rect width="400" height="300" fill="#F8F9FA" rx="10" ry="10" />
  
  <!-- Abstract podiatry illustration -->
  <g transform="translate(200, 150)">
    <!-- Background circle -->
    <circle cx="0" cy="0" r="100" fill="#F0F4FF" />
    
    <!-- Abstract foot outline -->
    <path d="M-60 -50 C -70 -30, -75 0, -60 30 C -45 60, -15 70, 20 60 C 55 50, 70 20, 70 -10 C 70 -40, 50 -60, 20 -60 C -10 -60, -50 -70, -60 -50 Z" 
          fill="#FFFFFF" stroke="#6A5ACD" stroke-width="3" />
    
    <!-- Abstract arch support -->
    <path d="M-40 30 C -20 10, 10 10, 40 25" 
          fill="none" stroke="url(#podiatryGradient)" stroke-width="3" stroke-dasharray="7,3" />
    
    <!-- Abstract toe outlines -->
    <path d="M20 -45 C 25 -55, 35 -55, 40 -45" fill="none" stroke="#6A5ACD" stroke-width="2" />
    <path d="M40 -40 C 45 -50, 55 -50, 60 -40" fill="none" stroke="#6A5ACD" stroke-width="2" />
    <path d="M55 -30 C 60 -40, 70 -40, 75 -30" fill="none" stroke="#6A5ACD" stroke-width="2" />
    <path d="M65 -15 C 70 -25, 80 -25, 85 -15" fill="none" stroke="#6A5ACD" stroke-width="2" />
    <path d="M65 0 C 70 -10, 80 -10, 85 0" fill="none" stroke="#6A5ACD" stroke-width="2" />
    
    <!-- Abstract bone structure -->
    <path d="M-20 -20 L 20 -35" stroke="#6A5ACD" stroke-width="1.5" stroke-dasharray="3,2" />
    <path d="M-10 0 L 30 -20" stroke="#6A5ACD" stroke-width="1.5" stroke-dasharray="3,2" />
    <path d="M0 20 L 40 0" stroke="#6A5ACD" stroke-width="1.5" stroke-dasharray="3,2" />
    
    <!-- Abstract pressure points -->
    <circle cx="-30" cy="0" r="5" fill="#4169E1" opacity="0.7" />
    <circle cx="0" cy="-30" r="5" fill="#4169E1" opacity="0.7" />
    <circle cx="30" cy="20" r="5" fill="#4169E1" opacity="0.7" />
    <circle cx="-20" cy="40" r="5" fill="#4169E1" opacity="0.7" />
  </g>
  
  <!-- Abstract decorative elements -->
  <circle cx="40" cy="40" r="15" fill="#6A5ACD" opacity="0.2" />
  <circle cx="360" cy="260" r="20" fill="#4169E1" opacity="0.2" />
</svg>