<svg xmlns="http://www.w3.org/2000/svg" width="800" height="500" viewBox="0 0 800 500">
  <defs>
    <linearGradient id="heroGradient" x1="0%" y1="0%" x2="100%" y2="100%">
      <stop offset="0%" style="stop-color:#6A5ACD;stop-opacity:1" />
      <stop offset="100%" style="stop-color:#4169E1;stop-opacity:1" />
    </linearGradient>
  </defs>
  <rect width="800" height="500" fill="#F5F7FA" />
  
  <!-- Abstract background shapes -->
  <circle cx="150" cy="400" r="300" fill="url(#heroGradient)" opacity="0.1" />
  <circle cx="650" cy="100" r="250" fill="url(#heroGradient)" opacity="0.1" />
  
  <!-- Abstract Wellness Center Building -->
  <rect x="250" y="200" width="300" height="200" rx="10" fill="#FFFFFF" stroke="#6A5ACD" stroke-width="3" />
  <rect x="350" y="320" width="100" height="80" rx="5" fill="#F5F7FA" stroke="#6A5ACD" stroke-width="2" />
  <path d="M250 200 L400 100 L550 200 Z" fill="#4169E1" opacity="0.9" />
  
  <!-- Abstract Wellness Symbol -->
  <circle cx="400" cy="170" r="40" fill="#FFFFFF" stroke="#6A5ACD" stroke-width="3" />
  <path d="M400 130 L400 210 M370 170 L430 170" stroke="#6A5ACD" stroke-width="5" stroke-linecap="round" />
  
  <!-- Abstract Decorative Elements -->
  <circle cx="200" cy="150" r="20" fill="#4169E1" opacity="0.7" />
  <circle cx="600" cy="350" r="25" fill="#4169E1" opacity="0.7" />
  <circle cx="650" cy="250" r="15" fill="#6A5ACD" opacity="0.7" />
  <circle cx="150" cy="300" r="18" fill="#6A5ACD" opacity="0.7" />
  
  <!-- Abstract Trees/Plants -->
  <circle cx="180" cy="350" r="30" fill="#43A047" opacity="0.8" />
  <circle cx="180" cy="300" r="20" fill="#43A047" opacity="0.8" />
  <rect x="175" y="350" width="10" height="50" fill="#795548" />
  
  <circle cx="620" cy="350" r="30" fill="#43A047" opacity="0.8" />
  <circle cx="620" cy="300" r="20" fill="#43A047" opacity="0.8" />
  <rect x="615" y="350" width="10" height="50" fill="#795548" />
</svg>